<mxfile host="app.diagrams.net" agent="Mozilla/5.0 (Macintosh; Intel Mac OS X 10_15_7) AppleWebKit/537.36 (KHTML, like Gecko) Chrome/130.0.0.0 Safari/537.36" version="24.8.3">
  <diagram name="第 1 页" id="gL-cPy9ZceCgydemFFgL">
    <mxGraphModel dx="1026" dy="772" grid="1" gridSize="10" guides="1" tooltips="1" connect="1" arrows="1" fold="1" page="1" pageScale="1" pageWidth="827" pageHeight="1169" math="0" shadow="0">
      <root>
        <mxCell id="0" />
        <mxCell id="1" parent="0" />
        <mxCell id="ZKwQoB2eC7dHJ6mfOff0-2" value="post_information（岗位信息表）" style="swimlane;childLayout=stackLayout;horizontal=1;startSize=50;horizontalStack=0;rounded=1;fontSize=14;fontStyle=0;strokeWidth=2;resizeParent=0;resizeLast=1;shadow=0;dashed=0;align=center;arcSize=4;whiteSpace=wrap;html=1;" parent="1" vertex="1">
          <mxGeometry x="40" y="120" width="290" height="520" as="geometry" />
        </mxCell>
        <mxCell id="ZKwQoB2eC7dHJ6mfOff0-3" value="id&lt;span style=&quot;white-space: pre;&quot;&gt;&#x9;&lt;/span&gt;表 id 字段唯一标识&lt;div&gt;province&lt;span style=&quot;white-space: pre;&quot;&gt;&#x9;&lt;/span&gt;省份&lt;/div&gt;&lt;div&gt;type&lt;span style=&quot;white-space: pre;&quot;&gt;&#x9;&lt;/span&gt;岗位类型（0 省考 1 国考 2 事业 ）&lt;br&gt;&lt;div&gt;dept_code&lt;span style=&quot;white-space: pre;&quot;&gt;&#x9;&lt;/span&gt;部门代码&lt;/div&gt;&lt;div&gt;dept_name&lt;span style=&quot;white-space: pre;&quot;&gt;&#x9;&lt;/span&gt;部门名称&lt;/div&gt;&lt;div&gt;employ_department&lt;span style=&quot;white-space: pre;&quot;&gt;&#x9;&lt;/span&gt;用人司局&lt;/div&gt;&lt;div&gt;institutional_nature&lt;span style=&quot;white-space: pre;&quot;&gt;&#x9;&lt;/span&gt;机构性质&lt;/div&gt;&lt;div&gt;recruitment_position&lt;span style=&quot;white-space: pre;&quot;&gt;&#x9;&lt;/span&gt;招考职位&lt;/div&gt;&lt;div&gt;position_attributes&lt;span style=&quot;white-space: pre;&quot;&gt;&#x9;&lt;/span&gt;职位属性&lt;/div&gt;&lt;div&gt;position_distribution&lt;span style=&quot;white-space: pre;&quot;&gt;&#x9;&lt;/span&gt;职位分布&lt;/div&gt;&lt;div&gt;position_introduction&lt;span style=&quot;white-space: pre;&quot;&gt;&#x9;&lt;/span&gt;职位简介&lt;/div&gt;&lt;div&gt;position_code&lt;span style=&quot;white-space: pre;&quot;&gt;&#x9;&lt;/span&gt;职位代码&lt;/div&gt;&lt;div&gt;institutional_level&lt;span style=&quot;white-space: pre;&quot;&gt;&#x9;&lt;/span&gt;机构层级&lt;/div&gt;&lt;div&gt;exam_category&lt;span style=&quot;white-space: pre;&quot;&gt;&#x9;&lt;/span&gt;考试类别&lt;/div&gt;&lt;div&gt;recruitment_number&lt;span style=&quot;white-space: pre;&quot;&gt;&#x9;&lt;/span&gt;招考人数&lt;/div&gt;&lt;div&gt;profession&lt;span style=&quot;white-space: pre;&quot;&gt;&#x9;&lt;/span&gt;专业&lt;/div&gt;&lt;div&gt;education&lt;span style=&quot;white-space: pre;&quot;&gt;&#x9;&lt;/span&gt;学历&lt;/div&gt;&lt;div&gt;degree&lt;span style=&quot;white-space: pre;&quot;&gt;&#x9;&lt;/span&gt;学位&lt;/div&gt;&lt;div&gt;political_status&lt;span style=&quot;white-space: pre;&quot;&gt;&#x9;&lt;/span&gt;政治面貌&lt;/div&gt;&lt;div&gt;basic_work_time&lt;span style=&quot;white-space: pre;&quot;&gt;&#x9;&lt;/span&gt;基层工作最低年限&lt;/div&gt;&lt;div&gt;basic_work_experience&lt;span style=&quot;white-space: pre;&quot;&gt;&#x9;&lt;/span&gt;服务基层项目工作经历&lt;/div&gt;&lt;div&gt;ability_test &lt;span style=&quot;white-space: pre;&quot;&gt;&#x9;&lt;/span&gt;是否在面试阶段组织专业能力测试&lt;/div&gt;&lt;div&gt;personnel_ratio&lt;span style=&quot;white-space: pre;&quot;&gt;&#x9;&lt;/span&gt;面试人员比例&lt;/div&gt;&lt;div&gt;work_location&lt;span style=&quot;white-space: pre;&quot;&gt;&#x9;&lt;/span&gt;工作地点&lt;/div&gt;&lt;div&gt;residence_location&lt;span style=&quot;white-space: pre;&quot;&gt;&#x9;&lt;/span&gt;落户地点&lt;/div&gt;&lt;div&gt;remark&lt;span style=&quot;white-space: pre;&quot;&gt;&#x9;&lt;/span&gt;备注&lt;/div&gt;&lt;div&gt;website&lt;span style=&quot;white-space: pre;&quot;&gt;&#x9;&lt;/span&gt;部门网站&lt;/div&gt;&lt;div&gt;consult_phone1&lt;span style=&quot;white-space: pre;&quot;&gt;&#x9;&lt;/span&gt;咨询电话1&lt;/div&gt;&lt;div&gt;&lt;span style=&quot;background-color: initial;&quot;&gt;consult_phone2&lt;span style=&quot;white-space: pre;&quot;&gt;&#x9;&lt;/span&gt;&lt;/span&gt;咨询电话2&lt;/div&gt;&lt;div&gt;&lt;span style=&quot;background-color: initial;&quot;&gt;consult_phone3&lt;span style=&quot;white-space: pre;&quot;&gt;&#x9;&lt;/span&gt;&lt;/span&gt;咨询电话3&lt;/div&gt;&lt;/div&gt;" style="align=left;strokeColor=none;fillColor=none;spacingLeft=4;fontSize=12;verticalAlign=top;resizable=0;rotatable=0;part=1;html=1;" parent="ZKwQoB2eC7dHJ6mfOff0-2" vertex="1">
          <mxGeometry y="50" width="290" height="470" as="geometry" />
        </mxCell>
        <mxCell id="8JKO6QUTvcL8eNfZAgfe-5" value="capture_data（抓取的数据表）" style="swimlane;childLayout=stackLayout;horizontal=1;startSize=50;horizontalStack=0;rounded=1;fontSize=14;fontStyle=0;strokeWidth=2;resizeParent=0;resizeLast=1;shadow=0;dashed=0;align=center;arcSize=4;whiteSpace=wrap;html=1;" vertex="1" parent="1">
          <mxGeometry x="360" y="120" width="230" height="520" as="geometry" />
        </mxCell>
        <mxCell id="8JKO6QUTvcL8eNfZAgfe-6" value="id&lt;span style=&quot;white-space: pre;&quot;&gt;&#x9;&lt;/span&gt;数据表中的唯一标识 id&lt;div&gt;title&lt;span style=&quot;white-space: pre;&quot;&gt;&#x9;&lt;/span&gt;标题&lt;/div&gt;&lt;div&gt;url&lt;span style=&quot;white-space: pre;&quot;&gt;&#x9;&lt;/span&gt;访问链接&lt;/div&gt;&lt;div&gt;time&lt;span style=&quot;white-space: pre;&quot;&gt;&#x9;&lt;/span&gt;招考信息发布的时间&lt;/div&gt;&lt;div&gt;year&lt;span style=&quot;white-space: pre;&quot;&gt;&#x9;&lt;/span&gt;招考的年份&lt;/div&gt;&lt;div&gt;create_time&lt;span style=&quot;white-space: pre;&quot;&gt;&#x9;&lt;/span&gt;抓取数据的时间&lt;/div&gt;" style="align=left;strokeColor=none;fillColor=none;spacingLeft=4;fontSize=12;verticalAlign=top;resizable=0;rotatable=0;part=1;html=1;" vertex="1" parent="8JKO6QUTvcL8eNfZAgfe-5">
          <mxGeometry y="50" width="230" height="470" as="geometry" />
        </mxCell>
      </root>
    </mxGraphModel>
  </diagram>
</mxfile>
